<svg viewBox="0 0 200 200" xmlns="http://www.w3.org/2000/svg">
  <!-- 背景渐变 -->
  <defs>
    <linearGradient id="bgGradient" x1="0%" y1="0%" x2="100%" y2="100%">
      <stop offset="0%" style="stop-color:#FFF5E6;stop-opacity:1" />
      <stop offset="100%" style="stop-color:#FFE4CC;stop-opacity:1" />
    </linearGradient>
    <linearGradient id="bowlGradient" x1="0%" y1="0%" x2="0%" y2="100%">
      <stop offset="0%" style="stop-color:#FFFFFF;stop-opacity:1" />
      <stop offset="100%" style="stop-color:#F5F5F5;stop-opacity:1" />
    </linearGradient>
    <radialGradient id="riceGradient" cx="50%" cy="50%" r="50%">
      <stop offset="0%" style="stop-color:#FFFFFF;stop-opacity:1" />
      <stop offset="100%" style="stop-color:#FFF8E7;stop-opacity:1" />
    </radialGradient>
  </defs>
  
  <!-- 背景圆 -->
  <circle cx="100" cy="100" r="95" fill="url(#bgGradient)"/>
  
  <!-- 碗的阴影 -->
  <ellipse cx="100" cy="135" rx="48" ry="8" fill="#E0E0E0" opacity="0.3"/>
  
  <!-- 碗身 -->
  <path d="M 55 90 Q 55 130 100 135 Q 145 130 145 90 L 140 90 Q 140 125 100 130 Q 60 125 60 90 Z" 
        fill="url(#bowlGradient)" stroke="#FF6B6B" stroke-width="2.5"/>
  
  <!-- 碗口 -->
  <ellipse cx="100" cy="90" rx="45" ry="12" fill="#FFF" stroke="#FF6B6B" stroke-width="2.5"/>
  
  <!-- 碗内米饭 -->
  <ellipse cx="100" cy="90" rx="40" ry="10" fill="url(#riceGradient)"/>
  
  <!-- 米饭颗粒装饰 -->
  <ellipse cx="95" cy="88" rx="6" ry="3" fill="#FFF" opacity="0.9"/>
  <ellipse cx="105" cy="87" rx="5" ry="3" fill="#FFF" opacity="0.9"/>
  <ellipse cx="90" cy="91" rx="4" ry="2" fill="#FFF" opacity="0.8"/>
  <ellipse cx="110" cy="90" rx="5" ry="2.5" fill="#FFF" opacity="0.8"/>
  <ellipse cx="100" cy="89" rx="4" ry="2" fill="#FFF" opacity="0.7"/>
  
  <!-- 碗的花纹装饰 -->
  <path d="M 70 105 Q 75 108 80 105" stroke="#FFB6C1" stroke-width="1.5" fill="none"/>
  <path d="M 120 105 Q 125 108 130 105" stroke="#FFB6C1" stroke-width="1.5" fill="none"/>
  <circle cx="100" cy="115" r="3" fill="#FFB6C1" opacity="0.6"/>
  
  <!-- 左筷子 -->
  <rect x="35" y="70" width="4" height="70" fill="#8B4513" rx="2" transform="rotate(-25 37 105)"/>
  <rect x="35" y="70" width="4" height="70" fill="#A0522D" rx="2" transform="rotate(-25 37 105)" opacity="0.3"/>
  
  <!-- 右筷子 -->
  <rect x="161" y="70" width="4" height="70" fill="#8B4513" rx="2" transform="rotate(25 163 105)"/>
  <rect x="161" y="70" width="4" height="70" fill="#A0522D" rx="2" transform="rotate(25 163 105)" opacity="0.3"/>
  
  <!-- 筷子顶部高光 -->
  <rect x="36" y="72" width="2" height="20" fill="#D2691E" rx="1" transform="rotate(-25 37 82)" opacity="0.6"/>
  <rect x="162" y="72" width="2" height="20" fill="#D2691E" rx="1" transform="rotate(25 163 82)" opacity="0.6"/>
  
  <!-- 装饰性热气 -->
  <path d="M 85 75 Q 83 65 85 60" stroke="#FFB6C1" stroke-width="2" fill="none" opacity="0.5" stroke-linecap="round"/>
  <path d="M 100 72 Q 98 62 100 57" stroke="#FFB6C1" stroke-width="2" fill="none" opacity="0.6" stroke-linecap="round"/>
  <path d="M 115 75 Q 113 65 115 60" stroke="#FFB6C1" stroke-width="2" fill="none" opacity="0.5" stroke-linecap="round"/>
</svg>